<mxfile host="app.diagrams.net" modified="2023-01-12T05:17:23.485Z" agent="5.0 (Windows NT 10.0; Win64; x64) AppleWebKit/537.36 (KHTML, like Gecko) Chrome/108.0.0.0 Safari/537.36" etag="7LE4b-LjGF5apDRkrK23" version="20.5.3" type="github">
  <diagram id="E-e3KwMroLkpFgQxAOJb" name="Page-1">
    <mxGraphModel dx="1038" dy="539" grid="1" gridSize="10" guides="1" tooltips="1" connect="1" arrows="1" fold="1" page="1" pageScale="1" pageWidth="827" pageHeight="1169" math="0" shadow="0">
      <root>
        <mxCell id="0" />
        <mxCell id="1" parent="0" />
        <mxCell id="wNg4vTcNRbUfcR5iuGJv-2" value="&lt;h3&gt;Unity&lt;/h3&gt;" style="rounded=1;whiteSpace=wrap;html=1;absoluteArcSize=1;arcSize=14;strokeWidth=2;labelPosition=center;verticalLabelPosition=top;align=center;verticalAlign=bottom;" vertex="1" parent="1">
          <mxGeometry x="40" y="60" width="220" height="130" as="geometry" />
        </mxCell>
        <mxCell id="wNg4vTcNRbUfcR5iuGJv-3" value="3D Scenario:&lt;br&gt;&lt;div style=&quot;&quot;&gt;&lt;span style=&quot;background-color: initial;&quot;&gt;Solar farm with automated drone flying over all panels and taking pictures&lt;/span&gt;&lt;/div&gt;" style="rounded=1;whiteSpace=wrap;html=1;absoluteArcSize=1;arcSize=14;strokeWidth=2;align=left;" vertex="1" parent="1">
          <mxGeometry x="50" y="77.5" width="190" height="95" as="geometry" />
        </mxCell>
        <mxCell id="wNg4vTcNRbUfcR5iuGJv-6" value="&lt;h3&gt;SAP BTP Kyma&lt;/h3&gt;" style="rounded=1;whiteSpace=wrap;html=1;absoluteArcSize=1;arcSize=14;strokeWidth=2;labelPosition=center;verticalLabelPosition=top;align=center;verticalAlign=bottom;" vertex="1" parent="1">
          <mxGeometry x="375" y="60" width="415" height="280" as="geometry" />
        </mxCell>
        <mxCell id="wNg4vTcNRbUfcR5iuGJv-9" style="edgeStyle=orthogonalEdgeStyle;rounded=0;orthogonalLoop=1;jettySize=auto;html=1;" edge="1" parent="1" source="wNg4vTcNRbUfcR5iuGJv-4" target="wNg4vTcNRbUfcR5iuGJv-8">
          <mxGeometry relative="1" as="geometry" />
        </mxCell>
        <mxCell id="wNg4vTcNRbUfcR5iuGJv-4" value="REST Service&lt;br&gt;Receive time stamp and position of drone." style="rounded=1;whiteSpace=wrap;html=1;absoluteArcSize=1;arcSize=14;strokeWidth=2;align=left;" vertex="1" parent="1">
          <mxGeometry x="390" y="77.5" width="95" height="95" as="geometry" />
        </mxCell>
        <mxCell id="wNg4vTcNRbUfcR5iuGJv-7" style="edgeStyle=orthogonalEdgeStyle;rounded=0;orthogonalLoop=1;jettySize=auto;html=1;entryX=0;entryY=0.5;entryDx=0;entryDy=0;" edge="1" parent="1" source="wNg4vTcNRbUfcR5iuGJv-3" target="wNg4vTcNRbUfcR5iuGJv-4">
          <mxGeometry relative="1" as="geometry" />
        </mxCell>
        <mxCell id="wNg4vTcNRbUfcR5iuGJv-13" style="edgeStyle=orthogonalEdgeStyle;rounded=0;orthogonalLoop=1;jettySize=auto;html=1;exitX=1;exitY=0.5;exitDx=0;exitDy=0;entryX=0;entryY=0.5;entryDx=0;entryDy=0;" edge="1" parent="1" source="wNg4vTcNRbUfcR5iuGJv-8" target="wNg4vTcNRbUfcR5iuGJv-11">
          <mxGeometry relative="1" as="geometry" />
        </mxCell>
        <mxCell id="wNg4vTcNRbUfcR5iuGJv-8" value="Identify &quot;best&quot; (closest) picture in dataset for drone position." style="rounded=1;whiteSpace=wrap;html=1;absoluteArcSize=1;arcSize=14;strokeWidth=2;align=left;" vertex="1" parent="1">
          <mxGeometry x="535" y="77.5" width="95" height="95" as="geometry" />
        </mxCell>
        <mxCell id="wNg4vTcNRbUfcR5iuGJv-11" value="Send picture to AI model to retrieve soiling %" style="rounded=1;whiteSpace=wrap;html=1;absoluteArcSize=1;arcSize=14;strokeWidth=2;align=left;" vertex="1" parent="1">
          <mxGeometry x="660" y="77.5" width="95" height="95" as="geometry" />
        </mxCell>
      </root>
    </mxGraphModel>
  </diagram>
</mxfile>
